<svg width="79" height="79" viewBox="0 0 79 79" fill="none" xmlns="http://www.w3.org/2000/svg">
<circle cx="39.5" cy="39.5" r="39.5" fill="#FEBF0F"/>
<path fill-rule="evenodd" clip-rule="evenodd" d="M19 39.6145C19 49.8072 26.4028 58.2821 36.0833 60V45.1944H30.9583V39.5H36.0833V34.9444C36.0833 29.8194 39.3861 26.9722 44.0556 26.9722C45.5361 26.9722 47.1306 27.2 48.6111 27.4278V32.6666H45.9917C43.4861 32.6666 42.9167 33.9194 42.9167 35.5139V39.5H48.3833L47.4723 45.1944H42.9167V60C52.5973 58.2821 60 49.8072 60 39.6145C60 28.2765 50.775 19 39.5 19C28.225 19 19 28.2765 19 39.6145Z" fill="#241E1E"/>
</svg>
