<svg width="79" height="79" viewBox="0 0 79 79" fill="none" xmlns="http://www.w3.org/2000/svg">
<circle cx="39.4595" cy="39.4595" r="39.4595" fill="#FEBF0F"/>
<path d="M37.0767 31.115L31.5007 25.4609C30.8573 24.8086 29.6794 24.8128 28.9324 25.4701L24.3469 29.5051C22.9822 30.706 22.5916 32.4895 23.3801 33.9192C28.1299 42.5302 35.9482 49.4101 45.734 53.5896C47.3587 54.2835 49.3857 53.9397 50.7503 52.7389L55.3794 48.6654C56.1294 48.0056 56.1307 46.9643 55.3827 46.3999L48.9203 41.5257C48.244 41.0155 47.1947 41.0824 46.5169 41.6789L44.269 43.657C44.0189 43.877 43.6431 43.9296 43.3573 43.7848C39.6763 41.9197 36.6421 39.2498 34.5225 36.0107C34.3579 35.7591 34.4177 35.4284 34.6677 35.2084L36.9088 33.2364C37.5895 32.6374 37.6631 31.7095 37.0767 31.115Z" stroke="#241E1E" stroke-width="2" stroke-linecap="round" stroke-linejoin="round"/>
</svg>
