<?xml version="1.0" encoding="iso-8859-1"?>
<!-- Uploaded to: SVG Repo, www.svgrepo.com, Generator: SVG Repo Mixer Tools -->
<svg height="800px" width="800px" version="1.1" id="Layer_1" xmlns="http://www.w3.org/2000/svg" xmlns:xlink="http://www.w3.org/1999/xlink" 
	 viewBox="0 0 512 512" xml:space="preserve">
<path style="fill:#FFFFFF;" d="M128,345.6c0-12.621-9.276-23.108-21.333-25.165c-12.058,2.057-21.333,12.544-21.333,25.165
	c0,12.621,9.276,23.108,21.333,25.165C118.724,368.708,128,358.221,128,345.6z"/>
<g>
	<path style="fill:#F4F4F4;" d="M106.667,320.435L106.667,320.435c1.399-0.239,2.807-0.435,4.267-0.435
		C109.474,320,108.066,320.196,106.667,320.435z"/>
	<path style="fill:#F4F4F4;" d="M106.667,370.765c1.399,0.239,2.807,0.435,4.267,0.435
		C109.474,371.2,108.066,371.004,106.667,370.765L106.667,370.765z"/>
	<path style="fill:#F4F4F4;" d="M110.933,320c-1.459,0-2.867,0.196-4.267,0.435C118.724,322.492,128,332.979,128,345.6
		c0,12.621-9.276,23.108-21.333,25.165c1.399,0.239,2.807,0.435,4.267,0.435c14.08,0,25.6-11.52,25.6-25.6
		C136.533,331.52,125.013,320,110.933,320z"/>
</g>
<path style="fill:#FFFFFF;" d="M418.133,345.6c0-12.621-9.276-23.108-21.333-25.165c-12.058,2.057-21.333,12.544-21.333,25.165
	c0,12.621,9.276,23.108,21.333,25.165C408.858,368.708,418.133,358.221,418.133,345.6z"/>
<g>
	<path style="fill:#F4F4F4;" d="M396.8,320.435L396.8,320.435c1.399-0.239,2.807-0.435,4.267-0.435
		C399.607,320,398.199,320.196,396.8,320.435z"/>
	<path style="fill:#F4F4F4;" d="M396.8,370.765c1.399,0.239,2.807,0.435,4.267,0.435C399.607,371.2,398.199,371.004,396.8,370.765
		L396.8,370.765z"/>
	<path style="fill:#F4F4F4;" d="M401.067,320c-1.459,0-2.867,0.196-4.267,0.435c12.058,2.057,21.333,12.544,21.333,25.165
		c0,12.621-9.276,23.108-21.333,25.165c1.399,0.239,2.807,0.435,4.267,0.435c14.08,0,25.6-11.52,25.6-25.6
		C426.667,331.52,415.147,320,401.067,320z"/>
</g>
<g>
	<path style="fill:#FFFFFF;" d="M398.814,197.751l0.119-0.717l-3.669,21.948h22.869
		C412.348,210.901,405.905,203.938,398.814,197.751z"/>
	<path style="fill:#FFFFFF;" d="M383.232,187.477c-3.319-1.673-6.81-3.2-10.394-4.668
		C376.414,184.277,379.913,185.805,383.232,187.477z"/>
	<path style="fill:#FFFFFF;" d="M366.763,218.982l6.067-36.181c-7.535-3.089-15.616-5.751-24.414-7.953
		c-18.688-1.28-35.669-1.536-51.371-1.109l-13.056,52.395l1.783-7.151H366.763z"/>
	<path style="fill:#FFFFFF;" d="M256.427,218.982l10.82-43.204c-64.23,6.886-98.987,28.877-120.303,50.355
		c2.364-2.381,4.941-4.77,7.663-7.151H256.427z"/>
</g>
<g>
	<path style="fill:#F4F4F4;" d="M395.264,218.982l-1.195,7.151L395.264,218.982z"/>
	<path style="fill:#F4F4F4;" d="M398.933,197.035l-0.119,0.717c7.091,6.187,13.534,13.15,19.319,21.239h-22.869l-1.195,7.142h34.048
		C419.755,214.443,410.112,204.971,398.933,197.035z"/>
	<polygon style="fill:#F4F4F4;" points="372.83,182.801 372.83,182.801 372.838,182.81 	"/>
	<path style="fill:#F4F4F4;" d="M372.83,182.801l-6.067,36.181h-80.99l-1.783,7.151h92.757l6.485-38.656
		C379.913,185.805,376.414,184.277,372.83,182.801C372.838,182.81,372.838,182.81,372.83,182.801z"/>
	<path style="fill:#F4F4F4;" d="M267.247,175.778c3.917-0.418,7.91-0.802,12.049-1.101
		C275.157,174.985,271.164,175.36,267.247,175.778L267.247,175.778z"/>
	<path style="fill:#F4F4F4;" d="M256.427,218.982h-101.82c-2.722,2.372-5.291,4.762-7.663,7.151h119.467l12.885-51.456
		c-4.139,0.307-8.132,0.683-12.049,1.101L256.427,218.982z"/>
</g>
<path style="fill:#FFC107;" d="M477.867,320v-34.133c-4.693,0-8.533-3.84-8.533-8.533s3.84-8.533,8.533-8.533v-13.764L442.368,243.2
	H128c-51.456,0-86.784,13.056-98.304,25.6h4.437c4.693,0,8.533,3.84,8.533,8.533s-3.84,8.533-8.533,8.533H25.6v25.6
	c0,4.693-3.84,8.533-8.533,8.533v8.533h9.045c0,0,8.021,0,9.958,0c0.026,0,0.026,0.017,0.051,0.017
	c7.74-34.133,38.366-59.75,74.812-59.75c36.437,0,67.063,25.609,74.803,59.733h140.527c7.74-34.125,38.366-59.733,74.803-59.733
	s67.063,25.609,74.803,59.733h10.53C481.707,328.533,477.867,324.693,477.867,320z M217.6,285.867h-17.067
	c-2.389,0-4.267-1.877-4.267-4.267v-17.067c0-2.389,1.877-4.267,4.267-4.267H217.6c2.389,0,4.267,1.877,4.267,4.267V281.6
	C221.867,283.989,219.989,285.867,217.6,285.867z M247.467,315.733c0,2.389-1.877,4.267-4.267,4.267h-17.067
	c-2.389,0-4.267-1.877-4.267-4.267v-17.067c0-2.389,1.877-4.267,4.267-4.267H243.2c2.389,0,4.267,1.877,4.267,4.267V315.733z
	 M268.8,285.867h-17.067c-2.389,0-4.267-1.877-4.267-4.267v-17.067c0-2.389,1.877-4.267,4.267-4.267H268.8
	c2.389,0,4.267,1.877,4.267,4.267V281.6C273.067,283.989,271.189,285.867,268.8,285.867z M298.667,315.733
	c0,2.389-1.877,4.267-4.267,4.267h-17.067c-2.389,0-4.267-1.877-4.267-4.267v-17.067c0-2.389,1.877-4.267,4.267-4.267H294.4
	c2.389,0,4.267,1.877,4.267,4.267V315.733z M324.267,281.6c0,2.389-1.877,4.267-4.267,4.267h-17.067
	c-2.389,0-4.267-1.877-4.267-4.267v-17.067c0-2.389,1.877-4.267,4.267-4.267H320c2.389,0,4.267,1.877,4.267,4.267V281.6z"/>
<g>
	<path style="fill:#F9A825;" d="M475.87,328.533c0.632,2.799,1.169,5.632,1.485,8.533
		C477.039,334.165,476.501,331.332,475.87,328.533L475.87,328.533z"/>
	<path style="fill:#F9A825;" d="M486.4,311.467v-25.6h-8.533V320c0,4.693,3.84,8.533,8.533,8.533h-10.53
		c0.632,2.799,1.169,5.632,1.485,8.533h17.579V320C490.24,320,486.4,316.16,486.4,311.467z"/>
	<polygon style="fill:#F9A825;" points="486.4,268.8 486.4,257.877 477.867,255.036 477.867,268.8 	"/>
	<path style="fill:#F9A825;" d="M185.737,328.533c0.631,2.799,1.169,5.632,1.485,8.533
		C186.906,334.165,186.368,331.332,185.737,328.533L185.737,328.533z"/>
	<path style="fill:#F9A825;" d="M187.221,337.067h137.557c0.316-2.901,0.845-5.734,1.485-8.533H185.737
		C186.368,331.332,186.906,334.165,187.221,337.067z"/>
	<path style="fill:#F9A825;" d="M26.112,328.533h-9.045v8.533h17.579c0.316-2.893,0.845-5.726,1.476-8.516
		c-0.017,0-0.026-0.017-0.051-0.017C34.133,328.533,26.112,328.533,26.112,328.533z"/>
</g>
<path d="M110.933,302.933c-23.552,0-42.667,19.115-42.667,42.667s19.115,42.667,42.667,42.667S153.6,369.152,153.6,345.6
	S134.485,302.933,110.933,302.933z M110.933,371.2c-14.08,0-25.6-11.52-25.6-25.6c0-14.08,11.52-25.6,25.6-25.6
	s25.6,11.52,25.6,25.6C136.533,359.68,125.013,371.2,110.933,371.2z"/>
<path d="M247.467,298.667v17.067c0,2.389-1.877,4.267-4.267,4.267h-17.067c-2.389,0-4.267-1.877-4.267-4.267v-17.067
	c0-2.389,1.877-4.267,4.267-4.267H243.2C245.589,294.4,247.467,296.277,247.467,298.667z"/>
<path d="M298.667,298.667v17.067c0,2.389-1.877,4.267-4.267,4.267h-17.067c-2.389,0-4.267-1.877-4.267-4.267v-17.067
	c0-2.389,1.877-4.267,4.267-4.267H294.4C296.789,294.4,298.667,296.277,298.667,298.667z"/>
<path d="M324.267,264.533V281.6c0,2.389-1.877,4.267-4.267,4.267h-17.067c-2.389,0-4.267-1.877-4.267-4.267v-17.067
	c0-2.389,1.877-4.267,4.267-4.267H320C322.389,260.267,324.267,262.144,324.267,264.533z"/>
<path d="M273.067,264.533V281.6c0,2.389-1.877,4.267-4.267,4.267h-17.067c-2.389,0-4.267-1.877-4.267-4.267v-17.067
	c0-2.389,1.877-4.267,4.267-4.267H268.8C271.189,260.267,273.067,262.144,273.067,264.533z"/>
<path d="M221.867,264.533V281.6c0,2.389-1.877,4.267-4.267,4.267h-17.067c-2.389,0-4.267-1.877-4.267-4.267v-17.067
	c0-2.389,1.877-4.267,4.267-4.267H217.6C219.989,260.267,221.867,262.144,221.867,264.533z"/>
<path style="fill:#D50000;" d="M338.773,157.269c-33.365-1.707-63.232-0.512-89.685,3.669l5.035-20.139h80.555L338.773,157.269z"/>
<path d="M401.067,302.933c-23.552,0-42.667,19.115-42.667,42.667s19.115,42.667,42.667,42.667c23.552,0,42.667-19.115,42.667-42.667
	S424.619,302.933,401.067,302.933z M401.067,371.2c-14.08,0-25.6-11.52-25.6-25.6c0-14.08,11.52-25.6,25.6-25.6
	s25.6,11.52,25.6,25.6C426.667,359.68,415.147,371.2,401.067,371.2z"/>
<path d="M503.467,302.933v-51.2c0-3.669-2.389-6.912-5.803-8.107l-48.213-16.043c-20.992-34.987-50.603-56.747-92.501-68.181
	l-7.339-29.184c-0.939-3.84-4.352-6.485-8.277-6.485h-93.867c-3.925,0-7.339,2.645-8.277,6.485l-8.533,34.133
	c-22.955,5.12-43.093,12.8-60.757,23.125c-17.749,10.325-32.939,23.125-45.909,38.741C67.328,226.987,8.533,244.821,8.533,277.333
	v25.6c-4.693,0-8.533,3.84-8.533,8.533V345.6c0,4.693,3.84,8.533,8.533,8.533h34.133c4.693,0,8.533-3.84,8.533-8.533
	c0-32.939,26.795-59.733,59.733-59.733s59.733,26.795,59.733,59.733c0,4.693,3.84,8.533,8.533,8.533h153.6
	c4.693,0,8.533-3.84,8.533-8.533c0-32.939,26.795-59.733,59.733-59.733S460.8,312.661,460.8,345.6c0,4.693,3.84,8.533,8.533,8.533
	h34.133c4.693,0,8.533-3.84,8.533-8.533v-34.133C512,306.773,508.16,302.933,503.467,302.933z M398.933,197.035
	c11.179,7.936,20.821,17.408,29.184,29.099h-34.048L398.933,197.035z M348.416,174.848c12.971,3.243,24.491,7.424,34.816,12.629
	l-6.485,38.656h-92.757l13.056-52.395C312.747,173.312,329.728,173.568,348.416,174.848z M254.123,140.8h80.555l4.096,16.469
	c-33.365-1.707-63.232-0.512-89.685,3.669L254.123,140.8z M279.296,174.677l-12.885,51.456H146.944
	C169.557,203.349,207.275,179.968,279.296,174.677z M494.933,337.067h-17.579c-4.181-38.315-36.864-68.267-76.288-68.267
	s-72.107,29.952-76.288,68.267H187.221c-4.181-38.315-36.864-68.267-76.288-68.267s-72.107,29.952-76.288,68.267H17.067V320
	c4.693,0,8.533-3.84,8.533-8.533v-25.6h8.533c4.693,0,8.533-3.84,8.533-8.533s-3.84-8.533-8.533-8.533h-4.437
	c11.52-12.544,46.848-25.6,98.304-25.6h314.368l44.032,14.677V268.8h-8.533c-4.693,0-8.533,3.84-8.533,8.533s3.84,8.533,8.533,8.533
	h8.533v25.6c0,4.693,3.84,8.533,8.533,8.533V337.067z"/>
</svg>