<?xml version="1.0" encoding="iso-8859-1"?>
<!-- Uploaded to: SVG Repo, www.svgrepo.com, Generator: SVG Repo Mixer Tools -->
<svg version="1.1" id="Layer_1" xmlns="http://www.w3.org/2000/svg" xmlns:xlink="http://www.w3.org/1999/xlink" 
	 viewBox="0 0 496 496" xml:space="preserve">
<path style="fill:#EDCF51;" d="M359.2,319.6c3.2-8.8,4.8-18.4,4.8-28.8l26.4-52c-77.6-72.8-68-90.4-115.2-90.4H150.4
	c-47.2,0-44.8,45.6-72,90.4v52c0,10.4,1.6,19.2,4.8,28.8H359.2z"/>
<g>
	<path style="fill:#F2B200;" d="M359.2,319.6c3.2-8.8,4.8-18.4,4.8-28.8l26.4-52c-77.6-72.8-64.8-85.6-112-85.6H153.6
		c-47.2,0-48,40.8-75.2,85.6v52c0,10.4,1.6,19.2,4.8,28.8H359.2z"/>
	<path style="fill:#F2B200;" d="M492,342c0,4-3.2,8-8,8H12c-4,0-8-3.2-8-8v-80c0-4,3.2-8,8-8l87.2-21.6l272,0.8L484,254
		c4,0,8,3.2,8,8V342z"/>
</g>
<path style="fill:#EF9300;" d="M4,303.6V342c0,4,3.2,8,8,8h472.8c4,0,8-3.2,8-8v-38.4H4z"/>
<path d="M52.8,349.2c0-27.2,22.4-49.6,49.6-49.6s48.8,22.4,48.8,49.6"/>
<path style="fill:#8E8E8E;" d="M153.6,349.2h-4c0-26.4-20.8-47.2-47.2-47.2s-47.2,20.8-47.2,47.2h-4c0-28,23.2-51.2,51.2-51.2
	S153.6,320.4,153.6,349.2z"/>
<circle style="fill:#203547;" cx="102.4" cy="350.8" r="44.8"/>
<path style="fill:#122130;" d="M133.6,319.6c17.6,17.6,17.6,45.6,0,62.4c-17.6,17.6-45.6,17.6-62.4,0"/>
<circle style="fill:#FFA300;" cx="102.4" cy="350.8" r="28"/>
<path style="fill:#FF8500;" d="M121.6,330.8c11.2,11.2,11.2,28.8,0,39.2c-11.2,11.2-28.8,11.2-39.2,0"/>
<circle style="fill:#CED8DD;" cx="102.4" cy="350.8" r="24.8"/>
<path style="fill:#B2BBC1;" d="M119.2,333.2c9.6,9.6,9.6,24.8,0,34.4s-24.8,9.6-34.4,0"/>
<path style="opacity:0.2;fill:#888F91;enable-background:new    ;" d="M113.6,350.8c0,6.4-4.8,12.8-11.2,12.8s-11.2-7.2-11.2-12.8
	c0-6.4,4.8-11.2,11.2-11.2S113.6,344.4,113.6,350.8z"/>
<circle style="fill:#E7EFF2;" cx="102.4" cy="350.8" r="11.2"/>
<path style="fill:#DAE6EA;" d="M102.4,339.6c6.4,0,11.2,4.8,11.2,11.2c0,6.4-4.8,11.2-11.2,11.2"/>
<path style="fill:#666E70;" d="M102.4,326c-0.8,0-2.4,0-3.2,0c0.8,3.2,1.6,6.4,3.2,6.4s3.2-2.4,3.2-6.4C104,326,103.2,326,102.4,326
	z"/>
<path style="fill:#535A5B;" d="M102.4,332.4c1.6,0,3.2-2.4,3.2-6.4c-0.8,0-2.4,0-3.2,0"/>
<path style="fill:#666E70;" d="M98.4,374.8c2.4,0,4,0,6.4,0c-0.8-3.2-1.6-6.4-3.2-6.4C100.8,369.2,99.2,371.6,98.4,374.8z"/>
<path style="fill:#535A5B;" d="M105.6,374.8c-0.8-3.2-1.6-6.4-3.2-6.4"/>
<path style="fill:#666E70;" d="M82.4,335.6c3.2,2.4,5.6,3.2,6.4,1.6c0.8-0.8,0-4-1.6-6.4C85.6,332.4,84,334,82.4,335.6z"/>
<path style="fill:#535A5B;" d="M89.6,338c0.8-0.8,0-4-1.6-6.4"/>
<path style="fill:#666E70;" d="M121.6,365.2c-2.4-2.4-5.6-3.2-6.4-1.6c-0.8,0.8,0,4,1.6,6.4c0.8-0.8,1.6-1.6,2.4-2.4
	C120,367.6,120.8,366,121.6,365.2z"/>
<path style="fill:#535A5B;" d="M119.2,368.4c0.8-0.8,1.6-1.6,2.4-2.4c-2.4-2.4-5.6-3.2-6.4-1.6"/>
<path style="fill:#666E70;" d="M77.6,354c3.2-0.8,6.4-1.6,6.4-3.2s-2.4-3.2-6.4-3.2c0,0.8,0,2.4,0,3.2S77.6,353.2,77.6,354z"/>
<path style="fill:#535A5B;" d="M84,350.8c0-1.6-2.4-3.2-6.4-3.2c0,0.8,0,2.4,0,3.2"/>
<path style="fill:#666E70;" d="M120,350.8c0,1.6,2.4,3.2,5.6,3.2c0-2.4,0-4,0-6.4C122.4,347.6,120,349.2,120,350.8z"/>
<path style="fill:#535A5B;" d="M126.4,347.6c-3.2,0.8-6.4,1.6-6.4,3.2"/>
<path style="fill:#666E70;" d="M82.4,365.2c1.6,1.6,3.2,3.2,4.8,4.8c2.4-3.2,3.2-5.6,1.6-6.4C88,362.8,85.6,363.6,82.4,365.2z"/>
<path style="fill:#535A5B;" d="M87.2,370c2.4-3.2,3.2-5.6,1.6-6.4"/>
<path style="fill:#666E70;" d="M116.8,331.6c-2.4,3.2-3.2,5.6-1.6,6.4c0.8,0.8,4,0,6.4-1.6C120,334,118.4,332.4,116.8,331.6z"/>
<path style="fill:#535A5B;" d="M116.8,331.6c-2.4,3.2-3.2,5.6-1.6,6.4"/>
<path d="M344.8,349.2c0-27.2,22.4-49.6,49.6-49.6s48.8,22.4,48.8,49.6"/>
<path style="fill:#8E8E8E;" d="M444.8,349.2h-4c0-26.4-20.8-47.2-47.2-47.2c-26.4,0-47.2,20.8-47.2,47.2h-4
	c0-28,23.2-51.2,51.2-51.2S444.8,320.4,444.8,349.2z"/>
<circle style="fill:#203547;" cx="393.6" cy="350.8" r="44.8"/>
<path style="fill:#122130;" d="M425.6,319.6c17.6,17.6,17.6,45.6,0,62.4c-17.6,17.6-45.6,17.6-63.2,0"/>
<circle style="fill:#FFA300;" cx="393.6" cy="350.8" r="28"/>
<path style="fill:#FF8500;" d="M413.6,330.8c11.2,11.2,11.2,28.8,0,39.2c-11.2,11.2-28.8,11.2-39.2,0"/>
<path style="fill:#CED8DD;" d="M418.4,350.8c0,13.6-11.2,24.8-24.8,24.8c-13.6,0-24.8-11.2-24.8-24.8c0-13.6,11.2-24.8,24.8-24.8
	C407.2,326,418.4,337.2,418.4,350.8z"/>
<path style="fill:#B2BBC1;" d="M411.2,333.2c9.6,9.6,9.6,24.8,0,34.4s-24.8,9.6-34.4,0"/>
<path style="opacity:0.2;fill:#888F91;enable-background:new    ;" d="M405.6,350.8c0,6.4-4.8,12.8-11.2,12.8
	c-6.4,0-11.2-7.2-11.2-12.8c0-6.4,4.8-11.2,11.2-11.2C400,339.6,405.6,344.4,405.6,350.8z"/>
<circle style="fill:#E7EFF2;" cx="393.6" cy="350.8" r="11.2"/>
<path style="fill:#DAE6EA;" d="M393.6,339.6c6.4,0,11.2,4.8,11.2,11.2c0,6.4-4.8,11.2-11.2,11.2"/>
<path style="fill:#666E70;" d="M393.6,326c-0.8,0-2.4,0-3.2,0c0.8,3.2,1.6,6.4,3.2,6.4s3.2-2.4,3.2-6.4C396,326,395.2,326,393.6,326
	z"/>
<path style="fill:#535A5B;" d="M393.6,332.4c1.6,0,3.2-2.4,3.2-6.4c-0.8,0-2.4,0-3.2,0"/>
<path style="fill:#666E70;" d="M390.4,374.8c2.4,0,4,0,6.4,0c-0.8-3.2-1.6-6.4-3.2-6.4C392,369.2,391.2,371.6,390.4,374.8z"/>
<path style="fill:#535A5B;" d="M396.8,374.8c-0.8-3.2-1.6-6.4-3.2-6.4"/>
<path style="fill:#666E70;" d="M374.4,335.6c3.2,2.4,5.6,3.2,6.4,1.6c0.8-0.8,0-4-1.6-6.4C377.6,332.4,376,334,374.4,335.6z"/>
<path style="fill:#535A5B;" d="M380.8,338c0.8-0.8,0-4-1.6-6.4"/>
<path style="fill:#666E70;" d="M413.6,365.2c-2.4-2.4-5.6-3.2-6.4-1.6c-0.8,0.8,0,4,1.6,6.4c0.8-0.8,1.6-1.6,2.4-2.4
	C412,367.6,412.8,366,413.6,365.2z"/>
<path style="fill:#535A5B;" d="M411.2,368.4c0.8-0.8,1.6-1.6,2.4-2.4c-2.4-2.4-5.6-3.2-6.4-1.6"/>
<path style="fill:#666E70;" d="M369.6,354c3.2-0.8,6.4-1.6,6.4-3.2s-2.4-3.2-6.4-3.2c0,0.8,0,2.4,0,3.2S369.6,353.2,369.6,354z"/>
<path style="fill:#535A5B;" d="M376,350.8c0-1.6-2.4-3.2-6.4-3.2c0,0.8,0,2.4,0,3.2"/>
<path style="fill:#666E70;" d="M412,350.8c0,1.6,2.4,3.2,5.6,3.2c0-2.4,0-4,0-6.4C414.4,347.6,412,349.2,412,350.8z"/>
<path style="fill:#535A5B;" d="M418.4,347.6c-3.2,0.8-6.4,1.6-6.4,3.2"/>
<path style="fill:#666E70;" d="M374.4,365.2c1.6,1.6,3.2,3.2,4.8,4.8c2.4-3.2,3.2-5.6,1.6-6.4C380,362.8,377.6,363.6,374.4,365.2z"
	/>
<path style="fill:#535A5B;" d="M379.2,370c2.4-3.2,3.2-5.6,1.6-6.4"/>
<path style="fill:#666E70;" d="M408.8,331.6c-2.4,3.2-3.2,5.6-1.6,6.4c0.8,0.8,4,0,6.4-1.6C412,334,410.4,332.4,408.8,331.6z"/>
<path style="fill:#535A5B;" d="M408.8,331.6c-2.4,3.2-3.2,5.6-1.6,6.4"/>
<path style="fill:#B3C5C6;" d="M496,354c0,4-3.2,8-8,8h-30.4c-4,0-8-3.2-8-8v-11.2c0-4,3.2-8,8-8H488c4,0,8,3.2,8,8V354z"/>
<path style="fill:#C5D3D3;" d="M457.6,334.8c-4,0-8,3.2-8,8c0,4,3.2,8,8,8H488c4,0,8-3.2,8-8c0-4-3.2-8-8-8H457.6z"/>
<path style="fill:#B3C5C6;" d="M339.2,354c0,4-3.2,8-8,8H164.8c-4,0-8-3.2-8-8v-11.2c0-4,3.2-8,8-8h165.6c4,0,8,3.2,8,8V354H339.2z"
	/>
<path style="fill:#C5D3D3;" d="M164.8,334.8c-4,0-8,3.2-8,8c0,4,3.2,8,8,8h165.6c4,0,8-3.2,8-8c0-4-3.2-8-8-8H164.8z"/>
<g>
	<path style="fill:#51859B;" d="M235.2,186.8v41.6c0,4,3.2,8,8,8H388c-28-26.4-44-44.8-55.2-57.6h-89.6
		C239.2,178.8,235.2,182.8,235.2,186.8z"/>
	<path style="fill:#51859B;" d="M224.8,228.4c0,4-3.2,8-8,8h-100c-4,0-8-3.2-8-8l21.6-41.6c0-4,9.6-8,13.6-8h72c4,0,8,3.2,8,8v41.6
		H224.8z"/>
</g>
<g>
	<path style="fill:#EDCF51;" d="M280.8,254c0,2.4-2.4,4.8-4.8,4.8h-23.2c-2.4,0-4.8-2.4-4.8-4.8l0,0c0-2.4,2.4-4.8,4.8-4.8H276
		C279.2,249.2,280.8,251.6,280.8,254L280.8,254z"/>
	<path style="fill:#EDCF51;" d="M141.6,254c0,2.4-2.4,4.8-4.8,4.8h-23.2c-2.4,0-4.8-2.4-4.8-4.8l0,0c0-2.4,2.4-4.8,4.8-4.8h23.2
		C140,249.2,141.6,251.6,141.6,254L141.6,254z"/>
</g>
<g>
	<rect x="16" y="278" style="fill:#203547;" width="9.6" height="9.6"/>
	<rect x="7.2" y="268.4" style="fill:#203547;" width="9.6" height="9.6"/>
	<rect x="7.2" y="286.8" style="fill:#203547;" width="9.6" height="9.6"/>
	<rect x="35.2" y="278" style="fill:#203547;" width="9.6" height="9.6"/>
	<rect x="25.6" y="268.4" style="fill:#203547;" width="9.6" height="9.6"/>
	<rect x="25.6" y="286.8" style="fill:#203547;" width="9.6" height="9.6"/>
	<rect x="54.4" y="278" style="fill:#203547;" width="9.6" height="9.6"/>
	<rect x="44.8" y="268.4" style="fill:#203547;" width="9.6" height="9.6"/>
	<rect x="44.8" y="286.8" style="fill:#203547;" width="9.6" height="9.6"/>
	<rect x="72.8" y="278" style="fill:#203547;" width="9.6" height="9.6"/>
	<rect x="64" y="268.4" style="fill:#203547;" width="9.6" height="9.6"/>
	<rect x="64" y="286.8" style="fill:#203547;" width="9.6" height="9.6"/>
	<rect x="92" y="278" style="fill:#203547;" width="9.6" height="9.6"/>
	<rect x="82.4" y="268.4" style="fill:#203547;" width="9.6" height="9.6"/>
	<rect x="82.4" y="286.8" style="fill:#203547;" width="9.6" height="9.6"/>
	<rect x="111.2" y="278" style="fill:#203547;" width="9.6" height="9.6"/>
	<rect x="101.6" y="268.4" style="fill:#203547;" width="9.6" height="9.6"/>
	<rect x="101.6" y="286.8" style="fill:#203547;" width="9.6" height="9.6"/>
	<rect x="129.6" y="278" style="fill:#203547;" width="9.6" height="9.6"/>
	<rect x="120.8" y="268.4" style="fill:#203547;" width="9.6" height="9.6"/>
	<rect x="120.8" y="286.8" style="fill:#203547;" width="9.6" height="9.6"/>
	<rect x="148.8" y="278" style="fill:#203547;" width="9.6" height="9.6"/>
	<rect x="139.2" y="268.4" style="fill:#203547;" width="9.6" height="9.6"/>
	<rect x="139.2" y="286.8" style="fill:#203547;" width="9.6" height="9.6"/>
	<rect x="167.2" y="278" style="fill:#203547;" width="9.6" height="9.6"/>
	<rect x="158.4" y="268.4" style="fill:#203547;" width="9.6" height="9.6"/>
	<rect x="158.4" y="286.8" style="fill:#203547;" width="9.6" height="9.6"/>
	<rect x="186.4" y="278" style="fill:#203547;" width="9.6" height="9.6"/>
	<rect x="176.8" y="268.4" style="fill:#203547;" width="9.6" height="9.6"/>
	<rect x="176.8" y="286.8" style="fill:#203547;" width="9.6" height="9.6"/>
	<rect x="205.6" y="278" style="fill:#203547;" width="9.6" height="9.6"/>
	<rect x="196" y="268.4" style="fill:#203547;" width="9.6" height="9.6"/>
	<rect x="196" y="286.8" style="fill:#203547;" width="9.6" height="9.6"/>
	<rect x="224" y="278" style="fill:#203547;" width="9.6" height="9.6"/>
	<rect x="215.2" y="268.4" style="fill:#203547;" width="9.6" height="9.6"/>
	<rect x="215.2" y="286.8" style="fill:#203547;" width="9.6" height="9.6"/>
	<rect x="243.2" y="278" style="fill:#203547;" width="9.6" height="9.6"/>
	<rect x="233.6" y="268.4" style="fill:#203547;" width="9.6" height="9.6"/>
	<rect x="233.6" y="286.8" style="fill:#203547;" width="9.6" height="9.6"/>
	<rect x="262.4" y="278" style="fill:#203547;" width="9.6" height="9.6"/>
	<rect x="252.8" y="268.4" style="fill:#203547;" width="9.6" height="9.6"/>
	<rect x="252.8" y="286.8" style="fill:#203547;" width="9.6" height="9.6"/>
	<rect x="280.8" y="278" style="fill:#203547;" width="9.6" height="9.6"/>
	<rect x="272" y="268.4" style="fill:#203547;" width="9.6" height="9.6"/>
	<rect x="272" y="286.8" style="fill:#203547;" width="9.6" height="9.6"/>
	<rect x="300" y="278" style="fill:#203547;" width="9.6" height="9.6"/>
	<rect x="290.4" y="268.4" style="fill:#203547;" width="9.6" height="9.6"/>
	<rect x="290.4" y="286.8" style="fill:#203547;" width="9.6" height="9.6"/>
	<rect x="318.4" y="278" style="fill:#203547;" width="9.6" height="9.6"/>
	<rect x="309.6" y="268.4" style="fill:#203547;" width="9.6" height="9.6"/>
	<rect x="309.6" y="286.8" style="fill:#203547;" width="9.6" height="9.6"/>
	<rect x="337.6" y="278" style="fill:#203547;" width="9.6" height="9.6"/>
	<rect x="328" y="268.4" style="fill:#203547;" width="9.6" height="9.6"/>
	<rect x="328" y="286.8" style="fill:#203547;" width="9.6" height="9.6"/>
	<rect x="356.8" y="278" style="fill:#203547;" width="9.6" height="9.6"/>
	<rect x="347.2" y="268.4" style="fill:#203547;" width="9.6" height="9.6"/>
	<rect x="347.2" y="286.8" style="fill:#203547;" width="9.6" height="9.6"/>
	<rect x="375.2" y="278" style="fill:#203547;" width="9.6" height="9.6"/>
	<rect x="366.4" y="268.4" style="fill:#203547;" width="9.6" height="9.6"/>
	<rect x="366.4" y="286.8" style="fill:#203547;" width="9.6" height="9.6"/>
	<rect x="394.4" y="278" style="fill:#203547;" width="9.6" height="9.6"/>
	<rect x="384.8" y="268.4" style="fill:#203547;" width="9.6" height="9.6"/>
	<rect x="384.8" y="286.8" style="fill:#203547;" width="9.6" height="9.6"/>
	<rect x="413.6" y="278" style="fill:#203547;" width="9.6" height="9.6"/>
	<rect x="404" y="268.4" style="fill:#203547;" width="9.6" height="9.6"/>
	<rect x="404" y="286.8" style="fill:#203547;" width="9.6" height="9.6"/>
	<rect x="432" y="278" style="fill:#203547;" width="9.6" height="9.6"/>
	<rect x="422.4" y="268.4" style="fill:#203547;" width="9.6" height="9.6"/>
	<rect x="422.4" y="286.8" style="fill:#203547;" width="9.6" height="9.6"/>
	<rect x="451.2" y="278" style="fill:#203547;" width="9.6" height="9.6"/>
	<rect x="441.6" y="268.4" style="fill:#203547;" width="9.6" height="9.6"/>
	<rect x="441.6" y="286.8" style="fill:#203547;" width="9.6" height="9.6"/>
	<rect x="469.6" y="278" style="fill:#203547;" width="9.6" height="9.6"/>
	<rect x="460.8" y="268.4" style="fill:#203547;" width="9.6" height="9.6"/>
	<rect x="460.8" y="286.8" style="fill:#203547;" width="9.6" height="9.6"/>
	<rect x="479.2" y="268.4" style="fill:#203547;" width="9.6" height="9.6"/>
	<rect x="479.2" y="286.8" style="fill:#203547;" width="9.6" height="9.6"/>
</g>
<path style="fill:#DB0940;" d="M12,342c0,3.2-2.4,5.6-5.6,5.6l0,0c-3.2,0-5.6-2.4-5.6-5.6v-33.6c0-3.2,2.4-5.6,5.6-5.6l0,0
	c3.2,0,5.6,2.4,5.6,5.6V342z"/>
<path style="fill:#BC043D;" d="M7.2,303.6L7.2,303.6c3.2,0,5.6,2.4,5.6,5.6v33.6c0,3.2-2.4,5.6-5.6,5.6l0,0c-3.2,0-5.6-2.4-5.6-5.6"
	/>
<path style="fill:#B3C5C6;" d="M46.4,354c0,4-3.2,8-8,8H8c-4,0-8-3.2-8-8v-11.2c0-4,3.2-8,8-8h30.4c4,0,8,3.2,8,8V354z"/>
<path style="fill:#C5D3D3;" d="M8,334.8c-4,0-8,3.2-8,8c0,4,3.2,8,8,8h30.4c4,0,8-3.2,8-8c0-4-3.2-8-8-8H8z"/>
<path style="fill:#F7DD6D;" d="M494.4,293.2c0,4.8-4,8.8-8.8,8.8l0,0c-4.8,0-8.8-4-8.8-8.8v-20c0-4.8,4-8.8,8.8-8.8l0,0
	c4.8,0,8.8,4,8.8,8.8V293.2z"/>
<path style="fill:#EDCF51;" d="M486.4,302L486.4,302c-4.8,0-8.8-4-8.8-8.8v-20c0-4.8,4-8.8,8.8-8.8l0,0"/>
<g>
	<path style="fill:#B3C5C6;" d="M480.8,299.6c0,1.6-1.6,3.2-3.2,3.2l0,0c-1.6,0-3.2-1.6-3.2-3.2v-31.2c0-1.6,1.6-3.2,3.2-3.2l0,0
		c1.6,0,3.2,1.6,3.2,3.2V299.6z"/>
	<path style="fill:#B3C5C6;" d="M495.2,305.2c0,0.8-0.8,1.6-1.6,1.6h-10.4c-0.8,0-1.6-0.8-1.6-1.6l0,0c0-0.8,0.8-1.6,1.6-1.6h10.4
		C494.4,303.6,495.2,304.4,495.2,305.2L495.2,305.2z"/>
	<path style="fill:#B3C5C6;" d="M495.2,308.4c0,0.8-0.8,1.6-1.6,1.6h-10.4c-0.8,0-1.6-0.8-1.6-1.6l0,0c0-0.8,0.8-1.6,1.6-1.6h10.4
		C494.4,306.8,495.2,307.6,495.2,308.4L495.2,308.4z"/>
	<path style="fill:#B3C5C6;" d="M495.2,311.6c0,0.8-0.8,1.6-1.6,1.6h-10.4c-0.8,0-1.6-0.8-1.6-1.6l0,0c0-0.8,0.8-1.6,1.6-1.6h10.4
		C494.4,310.8,495.2,310.8,495.2,311.6L495.2,311.6z"/>
	<path style="fill:#B3C5C6;" d="M495.2,315.6c0,0.8-0.8,1.6-1.6,1.6h-10.4c-0.8,0-1.6-0.8-1.6-1.6l0,0c0-0.8,0.8-1.6,1.6-1.6h10.4
		C494.4,314,495.2,314.8,495.2,315.6L495.2,315.6z"/>
	<path style="fill:#B3C5C6;" d="M495.2,318.8c0,0.8-0.8,1.6-1.6,1.6h-10.4c-0.8,0-1.6-0.8-1.6-1.6l0,0c0-0.8,0.8-1.6,1.6-1.6h10.4
		C494.4,317.2,495.2,318,495.2,318.8L495.2,318.8z"/>
	<path style="fill:#B3C5C6;" d="M495.2,322c0,0.8-0.8,1.6-1.6,1.6h-10.4c-0.8,0-1.6-0.8-1.6-1.6l0,0c0-0.8,0.8-1.6,1.6-1.6h10.4
		C494.4,321.2,495.2,321.2,495.2,322L495.2,322z"/>
	<path style="fill:#B3C5C6;" d="M495.2,326c0,0.8-0.8,1.6-1.6,1.6h-10.4c-0.8,0-1.6-0.8-1.6-1.6l0,0c0-0.8,0.8-1.6,1.6-1.6h10.4
		C494.4,324.4,495.2,325.2,495.2,326L495.2,326z"/>
	<path style="fill:#B3C5C6;" d="M495.2,329.2c0,0.8-0.8,1.6-1.6,1.6h-10.4c-0.8,0-1.6-0.8-1.6-1.6l0,0c0-0.8,0.8-1.6,1.6-1.6h10.4
		C494.4,327.6,495.2,328.4,495.2,329.2L495.2,329.2z"/>
	<path style="fill:#B3C5C6;" d="M495.2,332.4c0,0.8-0.8,1.6-1.6,1.6h-10.4c-0.8,0-1.6-0.8-1.6-1.6l0,0c0-0.8,0.8-1.6,1.6-1.6h10.4
		C494.4,331.6,495.2,331.6,495.2,332.4L495.2,332.4z"/>
</g>
<g>
	<path style="fill:#81B6C9;" d="M159.2,236.4l57.6-57.6l0,0h-22.4l-57.6,57.6L159.2,236.4L159.2,236.4z"/>
	<path style="fill:#81B6C9;" d="M149.6,178.8h-4.8c-4,0-13.6,3.2-13.6,8l-12,22.4L149.6,178.8z"/>
	<path style="fill:#81B6C9;" d="M224.8,222.8v-36c0-0.8,0-0.8,0-1.6l-51.2,51.2h37.6L224.8,222.8z"/>
	<path style="fill:#81B6C9;" d="M296.8,178.8L240,235.6c0.8,0.8,2.4,0.8,3.2,0.8h14.4l57.6-57.6L296.8,178.8L296.8,178.8z"/>
	<path style="fill:#81B6C9;" d="M268.8,178.8h-25.6c-4,0-8,3.2-8,8v25.6L268.8,178.8z"/>
	<path style="fill:#81B6C9;" d="M357.6,206.8l-30.4,30.4h60C375.2,225.2,365.6,214.8,357.6,206.8z"/>
</g>
<path style="fill:#EDCF51;" d="M249.6,143.6c0,2.4-1.6,4-4,4h-39.2c-2.4,0-4-1.6-4-4l8-39.2c0-2.4,1.6-4,4-4h23.2c2.4,0,4,1.6,4,4
	L249.6,143.6z"/>
<g>
	<path style="fill:#F2B200;" d="M245.6,147.6h-39.2c-2.4,0-4-1.6-4-4l8-39.2c0-2.4,1.6-4,4-4h23.2c2.4,0,4,1.6,4,4"/>
	<path style="fill:#F2B200;" d="M353.6,232.4c1.6,1.6,0.8,4.8-0.8,6.4l0,0c-1.6,1.6-4.8,0.8-6.4-0.8L296,171.6
		c-1.6-1.6-0.8-4.8,0.8-6.4l0,0c1.6-1.6,4.8-0.8,6.4,0.8L353.6,232.4z"/>
</g>
</svg>