<svg width="79" height="79" viewBox="0 0 79 79" fill="none" xmlns="http://www.w3.org/2000/svg">
<circle cx="39.5" cy="39.5" r="39.5" fill="#FEBF0F"/>
<path d="M29.3917 55.65C32.2667 57.375 35.7167 58.3333 39.1667 58.3333C49.7083 58.3333 58.3333 49.7083 58.3333 39.1667C58.3333 28.625 49.7083 20 39.1667 20C28.625 20 20 28.625 20 39.1667C20 42.6167 20.9583 45.875 22.4917 48.75L20.8433 55.0865C20.7583 55.4136 20.7613 55.7574 20.852 56.083C20.9426 56.4086 21.1178 56.7044 21.3597 56.9405C21.6016 57.1765 21.9016 57.3444 22.2293 57.4271C22.5571 57.5098 22.9008 57.5044 23.2258 57.4114L29.3917 55.65Z" fill="#241E1E" stroke="#FEBF0F" stroke-width="1.5" stroke-miterlimit="10" stroke-linecap="round" stroke-linejoin="round"/>
<path d="M48.25 45.0837C48.25 45.3942 48.181 45.7142 48.0334 46.0247C47.8828 46.3456 47.6851 46.6421 47.4469 46.9045C47.0233 47.3703 46.5576 47.7057 46.0286 47.9223C45.5111 48.1388 44.9495 48.25 44.3458 48.25C43.4641 48.25 42.523 48.043 41.5282 47.6213C40.4766 47.1654 39.48 46.5919 38.5574 45.9117C37.554 45.1787 36.6071 44.3714 35.7246 43.4967C34.8515 42.619 34.0461 41.6765 33.3153 40.6772C32.6438 39.7627 32.0755 38.7767 31.621 37.7371C31.207 36.75 31 35.8108 31 34.9158C31 34.3293 31.1035 33.7696 31.3105 33.2521C31.5175 32.725 31.8472 32.242 32.3052 31.8107C32.8572 31.2664 33.461 31 34.1012 31C34.3427 31 34.5842 31.0517 34.8007 31.1552C35.025 31.2587 35.2224 31.414 35.3796 31.6383L37.3844 34.4596C37.5378 34.6743 37.6527 34.8736 37.7294 35.0633C37.8061 35.2435 37.8502 35.4256 37.8502 35.5885C37.8477 35.8059 37.7846 36.0183 37.6681 36.2018C37.535 36.4262 37.3726 36.6318 37.1851 36.8132L36.5277 37.4956C36.4819 37.5403 36.446 37.5941 36.4223 37.6535C36.3985 37.7129 36.3874 37.7766 36.3897 37.8406C36.3897 37.9077 36.3993 37.969 36.4165 38.038C36.4414 38.107 36.4683 38.1588 36.4855 38.2105C36.6388 38.4961 36.9072 38.866 37.2886 39.3145C37.6777 39.763 38.0917 40.2211 38.5402 40.6772C39.0078 41.1353 39.4563 41.557 39.9144 41.9461C40.3629 42.3237 40.7348 42.5824 41.028 42.7377L41.1852 42.8086C41.254 42.8331 41.3268 42.8448 41.3998 42.8431C41.466 42.8445 41.5316 42.8321 41.5927 42.8067C41.6537 42.7813 41.7088 42.7434 41.7544 42.6955L42.4099 42.0477C42.6265 41.833 42.8335 41.6701 43.0328 41.5647C43.2161 41.4479 43.4288 41.3854 43.6462 41.3845C43.8276 41.3872 44.0067 41.4256 44.1733 41.4976C44.363 41.5743 44.5623 41.6854 44.777 41.833L47.6367 43.8608C47.8439 43.9956 48.0087 44.1864 48.112 44.4109C48.2016 44.624 48.2485 44.8525 48.25 45.0837Z" stroke="#FEBF0F" stroke-width="1.5" stroke-miterlimit="10"/>
</svg>
