<?xml version="1.0" encoding="UTF-8"?>
<!DOCTYPE svg PUBLIC "-//W3C//DTD SVG 1.1//EN" "http://www.w3.org/Graphics/SVG/1.1/DTD/svg11.dtd">
<svg xmlns="http://www.w3.org/2000/svg" version="1.1" width="200px" height="200px" style="shape-rendering:geometricPrecision; text-rendering:geometricPrecision; image-rendering:optimizeQuality; fill-rule:evenodd; clip-rule:evenodd" xmlns:xlink="http://www.w3.org/1999/xlink">
<g><path style="opacity:1" fill="#f9bb0e" d="M 114.5,4.5 C 116.407,7.33237 119.073,8.1657 122.5,7C 124.684,5.63658 126.684,4.13658 128.5,2.5C 135.989,1.34434 143.655,1.17767 151.5,2C 152.357,2.68909 153.023,3.52242 153.5,4.5C 152.157,6.83655 150.49,8.83655 148.5,10.5C 145.108,13.555 142.108,16.8883 139.5,20.5C 138.308,22.1131 137.308,23.7798 136.5,25.5C 136.631,24.7611 136.464,24.0944 136,23.5C 132.927,26.731 130.094,30.0643 127.5,33.5C 126.308,35.1131 125.308,36.7798 124.5,38.5C 124.631,37.7611 124.464,37.0944 124,36.5C 119.521,40.2427 114.354,41.4094 108.5,40C 106.313,38.975 104.646,37.475 103.5,35.5C 102.18,33.5368 100.846,31.5368 99.5,29.5C 99.9382,29.5654 100.272,29.3988 100.5,29C 99.8366,27.4815 98.8366,26.3149 97.5,25.5C 96.8897,23.5659 95.8897,21.8993 94.5,20.5C 94.3404,18.847 93.6737,17.5137 92.5,16.5C 91.6618,16.1583 91.3284,15.4916 91.5,14.5C 91.573,12.9731 90.9063,11.9731 89.5,11.5C 88.3995,10.3951 87.7329,9.06181 87.5,7.5C 87.6287,5.7839 87.962,4.11723 88.5,2.5C 96.3225,1.34387 104.323,1.17721 112.5,2C 113.381,2.7083 114.047,3.54163 114.5,4.5 Z"/></g>
<g><path style="opacity:1" fill="#fcbe0d" d="M -0.5,3.5 C 0.166667,3.5 0.833333,3.5 1.5,3.5C 1.5,4.16667 1.5,4.83333 1.5,5.5C 0.833333,5.5 0.166667,5.5 -0.5,5.5C -0.5,4.83333 -0.5,4.16667 -0.5,3.5 Z"/></g>
<g><path style="opacity:1" fill="#dfa90c" d="M 8.5,3.5 C 31.0062,3.16924 53.3396,3.50257 75.5,4.5C 77.1667,6.5 78.8333,8.5 80.5,10.5C 80.2089,11.6491 79.3756,12.3158 78,12.5C 69.545,11.2617 61.045,10.595 52.5,10.5C 42.1204,9.92883 31.7871,8.92883 21.5,7.5C 17.6877,6.67618 13.6877,6.17618 9.5,6C 10.8333,5.66667 12.1667,5.33333 13.5,5C 11.6183,4.80192 9.95161,4.30192 8.5,3.5 Z"/></g>
<g><path style="opacity:0.231" fill="#483202" d="M 88.5,2.5 C 87.962,4.11723 87.6287,5.7839 87.5,7.5C 84.9165,5.58089 85.2498,3.91422 88.5,2.5 Z"/></g>
<g><path style="opacity:0.18" fill="#623b0a" d="M 1.5,3.5 C 3.83333,3.5 6.16667,3.5 8.5,3.5C 9.95161,4.30192 11.6183,4.80192 13.5,5C 12.1667,5.33333 10.8333,5.66667 9.5,6C 13.6877,6.17618 17.6877,6.67618 21.5,7.5C 14.7109,7.79886 8.04423,7.1322 1.5,5.5C 1.5,4.83333 1.5,4.16667 1.5,3.5 Z"/></g>
<g><path style="opacity:0.125" fill="#403407" d="M 75.5,4.5 C 78.5696,5.24286 80.2363,7.24286 80.5,10.5C 78.8333,8.5 77.1667,6.5 75.5,4.5 Z"/></g>
<g><path style="opacity:0.231" fill="#523817" d="M 128.5,2.5 C 126.684,4.13658 124.684,5.63658 122.5,7C 119.073,8.1657 116.407,7.33237 114.5,4.5C 116.6,4.47724 118.433,5.14391 120,6.5C 122.685,4.73953 125.518,3.4062 128.5,2.5 Z"/></g>
<g><path style="opacity:0.329" fill="#594118" d="M 52.5,10.5 C 61.045,10.595 69.545,11.2617 78,12.5C 79.3756,12.3158 80.2089,11.6491 80.5,10.5C 81.9284,12.3773 81.4284,13.7106 79,14.5C 69.8297,13.5447 60.9964,12.2113 52.5,10.5 Z"/></g>
<g><path style="opacity:0.114" fill="#5e4210" d="M 148.5,10.5 C 146.576,14.7595 143.576,18.0928 139.5,20.5C 142.108,16.8883 145.108,13.555 148.5,10.5 Z"/></g>
<g><path style="opacity:0.078" fill="#4d3c04" d="M 89.5,11.5 C 90.9063,11.9731 91.573,12.9731 91.5,14.5C 90.0937,14.0269 89.427,13.0269 89.5,11.5 Z"/></g>
<g><path style="opacity:0.012" fill="#4d4804" d="M 92.5,16.5 C 93.6737,17.5137 94.3404,18.847 94.5,20.5C 92.8235,19.8166 92.1568,18.4832 92.5,16.5 Z"/></g>
<g><path style="opacity:0.02" fill="#d9781f" d="M 17.5,22.5 C 25.6499,21.5073 33.9832,21.1739 42.5,21.5C 39.1667,22.1667 35.8333,22.8333 32.5,23.5C 29.5,23.5 26.5,23.5 23.5,23.5C 21.7354,22.5386 19.7354,22.2053 17.5,22.5 Z"/></g>
<g><path style="opacity:0.02" fill="#b18630" d="M 42.5,21.5 C 50.7237,21.9222 59.0571,21.9222 67.5,21.5C 74.5351,21.5032 81.2017,22.1699 87.5,23.5C 69.1667,23.5 50.8333,23.5 32.5,23.5C 35.8333,22.8333 39.1667,22.1667 42.5,21.5 Z"/></g>
<g><path style="opacity:0.186" fill="#63410e" d="M 17.5,22.5 C 19.7354,22.2053 21.7354,22.5386 23.5,23.5C 17.7924,23.4924 17.4591,23.9924 22.5,25C 29.3796,25.2895 36.0463,26.1229 42.5,27.5C 31.0186,28.0264 19.6853,27.0264 8.5,24.5C 11.4776,23.6475 14.4776,22.9808 17.5,22.5 Z"/></g>
<g><path style="opacity:1" fill="#fbbc0d" d="M 23.5,23.5 C 26.5,23.5 29.5,23.5 32.5,23.5C 50.8333,23.5 69.1667,23.5 87.5,23.5C 88.1667,23.5 88.5,23.8333 88.5,24.5C 89.892,27.272 90.5587,29.9387 90.5,32.5C 90.2648,33.0967 89.7648,33.4301 89,33.5C 87.1997,32.6805 85.3664,32.0138 83.5,31.5C 78.1599,30.7185 72.6599,30.0519 67,29.5C 65.9302,29.528 65.0968,29.8614 64.5,30.5C 63.8333,30.5 63.5,30.1667 63.5,29.5C 56.6765,28.5091 49.6765,27.8425 42.5,27.5C 36.0463,26.1229 29.3796,25.2895 22.5,25C 17.4591,23.9924 17.7924,23.4924 23.5,23.5 Z"/></g>
<g><path style="opacity:0.133" fill="#736835" d="M 94.5,20.5 C 95.8897,21.8993 96.8897,23.5659 97.5,25.5C 96.5,25.5 95.5,25.5 94.5,25.5C 94.5,23.8333 94.5,22.1667 94.5,20.5 Z"/></g>
<g><path style="opacity:0.194" fill="#473005" d="M 97.5,25.5 C 98.8366,26.3149 99.8366,27.4815 100.5,29C 100.272,29.3988 99.9382,29.5654 99.5,29.5C 97.8958,28.713 97.2291,27.3797 97.5,25.5 Z"/></g>
<g><path style="opacity:0.035" fill="#4f390b" d="M 136.5,25.5 C 133.777,28.5604 130.777,31.227 127.5,33.5C 130.094,30.0643 132.927,26.731 136,23.5C 136.464,24.0944 136.631,24.7611 136.5,25.5 Z"/></g>
<g><path style="opacity:0.239" fill="#4a370e" d="M 42.5,27.5 C 49.6765,27.8425 56.6765,28.5091 63.5,29.5C 57.8236,29.6661 52.1569,29.4994 46.5,29C 44.9419,28.79 43.6085,28.29 42.5,27.5 Z"/></g>
<g><path style="opacity:0.075" fill="#694b1d" d="M 64.5,30.5 C 65.0968,29.8614 65.9302,29.528 67,29.5C 72.6599,30.0519 78.1599,30.7185 83.5,31.5C 77.1222,31.7054 70.7889,31.3721 64.5,30.5 Z"/></g>
<g><path style="opacity:0.047" fill="#4d3002" d="M 88.5,24.5 C 90.4583,26.1 91.7916,28.2666 92.5,31C 92.1639,32.0299 91.4972,32.5299 90.5,32.5C 90.5587,29.9387 89.892,27.272 88.5,24.5 Z"/></g>
<g><path style="opacity:0.251" fill="#5b3d05" d="M 103.5,35.5 C 104.646,37.475 106.313,38.975 108.5,40C 114.354,41.4094 119.521,40.2427 124,36.5C 124.464,37.0944 124.631,37.7611 124.5,38.5C 123.691,39.4687 122.691,40.3021 121.5,41C 116.5,41.6667 111.5,41.6667 106.5,41C 104.393,39.7365 103.393,37.9032 103.5,35.5 Z"/></g>
<g><path style="opacity:0.075" fill="#785f1b" d="M -0.5,53.5 C -0.5,53.1667 -0.5,52.8333 -0.5,52.5C 15.8367,52.3334 32.1701,52.5001 48.5,53C 51.0814,55.2257 51.0814,57.3924 48.5,59.5C 48.7394,57.5328 48.4061,55.6995 47.5,54C 31.5035,53.5001 15.5035,53.3334 -0.5,53.5 Z"/></g>
<g><path style="opacity:0.063" fill="#705a1d" d="M 199.5,52.5 C 199.5,52.8333 199.5,53.1667 199.5,53.5C 152.165,53.3333 104.832,53.5 57.5,54C 56.8622,57.9352 56.1955,61.7685 55.5,65.5C 55.203,61.2325 55.5363,57.0659 56.5,53C 104.166,52.5 151.832,52.3333 199.5,52.5 Z"/></g>
<g><path style="opacity:1" fill="#f2b612" d="M -0.5,53.5 C 15.5035,53.3334 31.5035,53.5001 47.5,54C 48.4061,55.6995 48.7394,57.5328 48.5,59.5C 47.596,60.209 47.2627,61.209 47.5,62.5C 42.9589,62.1574 38.6256,62.1574 34.5,62.5C 22.8813,61.3511 11.2146,60.3511 -0.5,59.5C -0.5,57.5 -0.5,55.5 -0.5,53.5 Z"/></g>
<g><path style="opacity:1" fill="#fbbc0d" d="M 199.5,53.5 C 199.5,56.1667 199.5,58.8333 199.5,61.5C 195.985,60.0807 192.319,59.414 188.5,59.5C 183.342,58.5416 178.009,57.8749 172.5,57.5C 171.833,58.1667 171.167,58.8333 170.5,59.5C 170.607,57.6214 170.107,57.2881 169,58.5C 168.578,60.3553 168.078,62.1886 167.5,64C 167.57,64.7648 167.903,65.2648 168.5,65.5C 167.833,67.8333 167.167,70.1667 166.5,72.5C 165.529,73.9621 165.862,75.2954 167.5,76.5C 178.085,75.5242 188.752,75.1909 199.5,75.5C 199.5,78.1667 199.5,80.8333 199.5,83.5C 199.167,83.5 198.833,83.5 198.5,83.5C 193.04,82.2627 187.373,81.596 181.5,81.5C 180.833,81.5 180.167,81.5 179.5,81.5C 175.092,79.7327 170.426,79.2327 165.5,80C 164.748,80.6708 164.414,81.5041 164.5,82.5C 163.237,85.4324 161.237,87.7657 158.5,89.5C 156.359,91.1217 154.692,93.1217 153.5,95.5C 152.596,96.209 152.263,97.209 152.5,98.5C 168.278,98.5847 183.945,98.5847 199.5,98.5C 199.5,100.833 199.5,103.167 199.5,105.5C 190.469,104.8 181.469,103.8 172.5,102.5C 171.584,102.543 170.917,102.876 170.5,103.5C 168.283,102.631 165.95,102.298 163.5,102.5C 159.838,101.659 156.005,100.992 152,100.5C 150.124,100.525 148.624,101.191 147.5,102.5C 144.522,103.478 142.522,105.478 141.5,108.5C 139.628,111.582 137.295,114.249 134.5,116.5C 132.91,119.761 130.576,122.427 127.5,124.5C 126.5,126.833 124.833,128.5 122.5,129.5C 119.51,132.792 116.51,136.126 113.5,139.5C 113.068,140.71 112.401,141.71 111.5,142.5C 111.565,142.062 111.399,141.728 111,141.5C 107.998,145.334 104.831,149 101.5,152.5C 101.573,154.027 100.906,155.027 99.5,155.5C 96.4823,156.855 95.149,159.188 95.5,162.5C 96.8333,162.5 98.1667,162.5 99.5,162.5C 116.458,161.193 133.458,161.193 150.5,162.5C 150.36,164.124 151.027,165.29 152.5,166C 168.163,166.5 183.83,166.667 199.5,166.5C 199.5,169.5 199.5,172.5 199.5,175.5C 198.609,174.89 197.609,174.557 196.5,174.5C 181.428,171.626 166.094,170.126 150.5,170C 149.594,171.699 149.261,173.533 149.5,175.5C 148.567,178.642 147.901,181.976 147.5,185.5C 147.39,187.374 148.056,188.874 149.5,190C 148.552,190.483 147.552,190.649 146.5,190.5C 146.244,193.598 145.578,196.598 144.5,199.5C 104.833,199.5 65.1667,199.5 25.5,199.5C 25.5,198.833 25.5,198.167 25.5,197.5C 26.6572,194.727 27.3239,191.727 27.5,188.5C 27.5,187.833 27.5,187.167 27.5,186.5C 29.1604,183.23 29.4938,179.897 28.5,176.5C 28.8872,173.794 29.8872,171.461 31.5,169.5C 34.8792,167.032 37.5459,164.032 39.5,160.5C 39.5,159.167 40.1667,158.5 41.5,158.5C 44.5725,156.431 46.9059,153.764 48.5,150.5C 50.1436,150.19 51.1436,149.19 51.5,147.5C 51.5,146.167 52.1667,145.5 53.5,145.5C 56.2003,143.766 58.2003,141.432 59.5,138.5C 60.5,138.167 61.1667,137.5 61.5,136.5C 63.2624,135.738 64.2624,134.404 64.5,132.5C 65.4023,130.659 66.7356,129.326 68.5,128.5C 71.5725,126.431 73.9059,123.764 75.5,120.5C 76.5218,118.145 78.1884,116.478 80.5,115.5C 82.0627,114.055 83.396,112.389 84.5,110.5C 86.1667,109.5 87.5,108.167 88.5,106.5C 89.1667,104.5 90.5,103.167 92.5,102.5C 93.4013,101.71 94.0679,100.71 94.5,99.5C 98.1507,97.5302 100.151,94.5302 100.5,90.5C 85.0421,89.545 69.7087,89.2116 54.5,89.5C 53.3433,86.9741 53.3433,84.3074 54.5,81.5C 55.2197,77.3002 55.8864,72.9669 56.5,68.5C 56.3764,67.8933 56.0431,67.56 55.5,67.5C 55.5,66.8333 55.5,66.1667 55.5,65.5C 56.1955,61.7685 56.8622,57.9352 57.5,54C 104.832,53.5 152.165,53.3333 199.5,53.5 Z"/></g>
<g><path style="opacity:0.141" fill="#776125" d="M 172.5,57.5 C 178.009,57.8749 183.342,58.5416 188.5,59.5C 182.886,59.927 177.553,59.2604 172.5,57.5 Z"/></g>
<g><path style="opacity:0.063" fill="#624914" d="M 48.5,59.5 C 48.5,60.8333 48.5,62.1667 48.5,63.5C 43.7858,63.6469 39.1191,63.3136 34.5,62.5C 38.6256,62.1574 42.9589,62.1574 47.5,62.5C 47.2627,61.209 47.596,60.209 48.5,59.5 Z"/></g>
<g><path style="opacity:0.039" fill="#634a07" d="M 170.5,59.5 C 169.833,61.5 169.167,63.5 168.5,65.5C 167.903,65.2648 167.57,64.7648 167.5,64C 168.078,62.1886 168.578,60.3553 169,58.5C 170.107,57.2881 170.607,57.6214 170.5,59.5 Z"/></g>
<g><path style="opacity:0.141" fill="#6a5627" d="M 166.5,72.5 C 167.234,73.7079 167.567,75.0413 167.5,76.5C 165.862,75.2954 165.529,73.9621 166.5,72.5 Z"/></g>
<g><path style="opacity:1" fill="#e2a90c" d="M -0.5,75.5 C 15.2522,75.8326 30.9189,75.9993 46.5,76C 47.8333,79.3333 47.8333,82.6667 46.5,86C 37.7607,86.0282 29.094,85.1949 20.5,83.5C 15.0399,82.2627 9.3732,81.596 3.5,81.5C 2.16667,81.5 0.833333,81.5 -0.5,81.5C -0.5,79.5 -0.5,77.5 -0.5,75.5 Z"/></g>
<g><path style="opacity:0.212" fill="#442e01" d="M 55.5,67.5 C 56.0431,67.56 56.3764,67.8933 56.5,68.5C 55.8864,72.9669 55.2197,77.3002 54.5,81.5C 54.1805,76.6367 54.5139,71.97 55.5,67.5 Z"/></g>
<g><path style="opacity:0.082" fill="#554013" d="M 179.5,81.5 C 174.405,81.2213 169.405,81.5546 164.5,82.5C 164.414,81.5041 164.748,80.6708 165.5,80C 170.426,79.2327 175.092,79.7327 179.5,81.5 Z"/></g>
<g><path style="opacity:0.418" fill="#563f0d" d="M 3.5,81.5 C 9.3732,81.596 15.0399,82.2627 20.5,83.5C 14.57,83.8718 8.90329,83.2051 3.5,81.5 Z"/></g>
<g><path style="opacity:0.059" fill="#5c430f" d="M 181.5,81.5 C 187.373,81.596 193.04,82.2627 198.5,83.5C 192.57,83.8718 186.903,83.2051 181.5,81.5 Z"/></g>
<g><path style="opacity:0.114" fill="#5b4305" d="M 54.5,89.5 C 69.7087,89.2116 85.0421,89.545 100.5,90.5C 100.151,94.5302 98.1507,97.5302 94.5,99.5C 95.5749,96.9193 97.2415,94.7527 99.5,93C 98.8333,92.6667 98.1667,92.3333 97.5,92C 82.7983,92.1532 68.465,91.3199 54.5,89.5 Z"/></g>
<g><path style="opacity:0.145" fill="#503305" d="M 158.5,89.5 C 158.313,92.6905 156.646,94.6905 153.5,95.5C 154.692,93.1217 156.359,91.1217 158.5,89.5 Z"/></g>
<g><path style="opacity:0.11" fill="#4c3607" d="M -0.5,97.5 C 27.8333,97.5 56.1667,97.5 84.5,97.5C 84.7373,98.791 84.404,99.791 83.5,100.5C 83.2172,99.7109 82.7172,99.0442 82,98.5C 63.7151,99.7312 45.3818,99.7312 27,98.5C 20.9408,98.4505 15.1074,99.1171 9.5,100.5C 6.09773,100.658 2.76439,100.324 -0.5,99.5C -0.5,98.8333 -0.5,98.1667 -0.5,97.5 Z"/></g>
<g><path style="opacity:0.086" fill="#503b07" d="M 153.5,95.5 C 168.464,97.4841 183.797,98.1507 199.5,97.5C 199.5,97.8333 199.5,98.1667 199.5,98.5C 183.945,98.5847 168.278,98.5847 152.5,98.5C 152.263,97.209 152.596,96.209 153.5,95.5 Z"/></g>
<g><path style="opacity:1" fill="#fbbc0e" d="M 83.5,100.5 C 83.573,102.027 82.9063,103.027 81.5,103.5C 80.5,103.833 79.8333,104.5 79.5,105.5C 77.5877,106.799 75.5877,107.799 73.5,108.5C 72.8333,108.5 72.5,108.167 72.5,107.5C 60.0194,105.481 47.3527,103.814 34.5,102.5C 33.5836,102.543 32.9169,102.876 32.5,103.5C 30.283,102.631 27.9496,102.298 25.5,102.5C 21.9976,101.694 18.331,101.027 14.5,100.5C 13.5836,100.543 12.9169,100.876 12.5,101.5C 11.609,100.89 10.609,100.557 9.5,100.5C 15.1074,99.1171 20.9408,98.4505 27,98.5C 45.3818,99.7312 63.7151,99.7312 82,98.5C 82.7172,99.0442 83.2172,99.7109 83.5,100.5 Z"/></g>
<g><path style="opacity:0.055" fill="#644905" d="M 94.5,99.5 C 94.0679,100.71 93.4013,101.71 92.5,102.5C 92.2852,100.821 92.9519,99.8212 94.5,99.5 Z"/></g>
<g><path style="opacity:0.106" fill="#6e571c" d="M 12.5,101.5 C 12.9169,100.876 13.5836,100.543 14.5,100.5C 18.331,101.027 21.9976,101.694 25.5,102.5C 21.1186,102.628 16.7853,102.295 12.5,101.5 Z"/></g>
<g><path style="opacity:0.078" fill="#735923" d="M 163.5,102.5 C 158.087,102.084 152.754,102.084 147.5,102.5C 148.624,101.191 150.124,100.525 152,100.5C 156.005,100.992 159.838,101.659 163.5,102.5 Z"/></g>
<g><path style="opacity:0.263" fill="#5d4216" d="M 72.5,107.5 C 67.1563,107.666 61.8229,107.499 56.5,107C 48.2959,106.209 40.2959,105.042 32.5,103.5C 32.9169,102.876 33.5836,102.543 34.5,102.5C 47.3527,103.814 60.0194,105.481 72.5,107.5 Z"/></g>
<g><path style="opacity:0.231" fill="#5c4114" d="M 199.5,105.5 C 199.5,106.167 199.5,106.833 199.5,107.5C 189.651,106.431 179.985,105.098 170.5,103.5C 170.917,102.876 171.584,102.543 172.5,102.5C 181.469,103.8 190.469,104.8 199.5,105.5 Z"/></g>
<g><path style="opacity:0.016" fill="#45392b" d="M 81.5,103.5 C 81.5,104.833 80.8333,105.5 79.5,105.5C 79.8333,104.5 80.5,103.833 81.5,103.5 Z"/></g>
<g><path style="opacity:0.075" fill="#513e10" d="M 147.5,102.5 C 146.5,105.5 144.5,107.5 141.5,108.5C 142.522,105.478 144.522,103.478 147.5,102.5 Z"/></g>
<g><path style="opacity:0.043" fill="#523301" d="M 79.5,105.5 C 79.5858,106.496 79.2524,107.329 78.5,108C 76.8659,108.494 75.1992,108.66 73.5,108.5C 75.5877,107.799 77.5877,106.799 79.5,105.5 Z"/></g>
<g><path style="opacity:0.141" fill="#4c3c0f" d="M 88.5,106.5 C 87.5,108.167 86.1667,109.5 84.5,110.5C 84.8333,108.167 86.1667,106.833 88.5,106.5 Z"/></g>
<g><path style="opacity:0.125" fill="#59470c" d="M 84.5,110.5 C 83.396,112.389 82.0627,114.055 80.5,115.5C 80.6696,112.796 82.0029,111.129 84.5,110.5 Z"/></g>
<g><path style="opacity:1" fill="#e8af1d" d="M -0.5,119.5 C 18.7087,119.481 37.7087,119.815 56.5,120.5C 58.3691,121.165 60.3691,121.831 62.5,122.5C 61.4502,123.429 61.4502,124.095 62.5,124.5C 61.5,126.833 59.8333,128.5 57.5,129.5C 52.9435,129.255 48.6102,129.255 44.5,129.5C 42.283,128.631 39.9496,128.298 37.5,128.5C 33.6047,127.775 29.6047,127.109 25.5,126.5C 16.7415,126.809 8.0748,126.142 -0.5,124.5C -0.5,122.833 -0.5,121.167 -0.5,119.5 Z"/></g>
<g><path style="opacity:0.119" fill="#663c0d" d="M 62.5,124.5 C 61.4502,124.095 61.4502,123.429 62.5,122.5C 60.3691,121.831 58.3691,121.165 56.5,120.5C 59.7342,119.032 62.7342,119.365 65.5,121.5C 64.8118,122.855 63.8118,123.855 62.5,124.5 Z"/></g>
<g><path style="opacity:1" fill="#dfa81f" d="M 199.5,119.5 C 199.5,122.833 199.5,126.167 199.5,129.5C 196.946,128.612 194.279,128.279 191.5,128.5C 187.005,127.578 182.338,126.911 177.5,126.5C 165.323,125.903 153.323,124.903 141.5,123.5C 140.89,122.609 140.557,121.609 140.5,120.5C 159.993,119.503 179.66,119.17 199.5,119.5 Z"/></g>
<g><path style="opacity:0.333" fill="#583a08" d="M 75.5,120.5 C 73.9059,123.764 71.5725,126.431 68.5,128.5C 69.7504,124.914 72.0837,122.248 75.5,120.5 Z"/></g>
<g><path style="opacity:0.086" fill="#66400c" d="M 134.5,116.5 C 134.5,117.833 134.5,119.167 134.5,120.5C 136.5,120.5 138.5,120.5 140.5,120.5C 140.557,121.609 140.89,122.609 141.5,123.5C 138.998,123.251 136.498,122.917 134,122.5C 131.761,123.091 129.594,123.758 127.5,124.5C 130.576,122.427 132.91,119.761 134.5,116.5 Z"/></g>
<g><path style="opacity:0.22" fill="#7b6129" d="M 25.5,126.5 C 29.6047,127.109 33.6047,127.775 37.5,128.5C 33.0293,129.089 29.0293,128.423 25.5,126.5 Z"/></g>
<g><path style="opacity:0.098" fill="#796727" d="M 177.5,126.5 C 182.338,126.911 187.005,127.578 191.5,128.5C 187.818,128.665 184.152,128.499 180.5,128C 179.263,127.768 178.263,127.268 177.5,126.5 Z"/></g>
<g><path style="opacity:0.016" fill="#817239" d="M 44.5,129.5 C 48.6102,129.255 52.9435,129.255 57.5,129.5C 56.1286,130.787 54.2953,131.453 52,131.5C 49.319,131.231 46.819,130.564 44.5,129.5 Z"/></g>
<g><path style="opacity:0.286" fill="#4a3b08" d="M 64.5,132.5 C 64.2624,134.404 63.2624,135.738 61.5,136.5C 61.7376,134.596 62.7376,133.262 64.5,132.5 Z"/></g>
<g><path style="opacity:0.139" fill="#351d00" d="M 61.5,136.5 C 61.1667,137.5 60.5,138.167 59.5,138.5C 59.5,137.167 60.1667,136.5 61.5,136.5 Z"/></g>
<g><path style="opacity:0.016" fill="#533f07" d="M 122.5,129.5 C 120.848,134.147 117.848,137.48 113.5,139.5C 116.51,136.126 119.51,132.792 122.5,129.5 Z"/></g>
<g><path style="opacity:0.239" fill="#4b380b" d="M 59.5,138.5 C 58.2003,141.432 56.2003,143.766 53.5,145.5C 54.9573,143.372 55.9573,141.038 56.5,138.5C 57.5,138.5 58.5,138.5 59.5,138.5 Z"/></g>
<g><path style="opacity:1" fill="#f5b810" d="M -0.5,143.5 C 8.16667,143.5 16.8333,143.5 25.5,143.5C 31.5,144.167 37.5,144.833 43.5,145.5C 41.8564,145.81 40.8564,146.81 40.5,148.5C 38.8333,149.5 37.5,150.833 36.5,152.5C 34.5,152.5 32.5,152.5 30.5,152.5C 26.4831,151.747 22.3164,151.08 18,150.5C 17.2352,150.57 16.7352,150.903 16.5,151.5C 10.9252,150.548 5.25858,150.214 -0.5,150.5C -0.5,148.167 -0.5,145.833 -0.5,143.5 Z"/></g>
<g><path style="opacity:0.406" fill="#402f08" d="M 25.5,143.5 C 31.8682,143.17 38.2015,143.504 44.5,144.5C 44.3764,145.107 44.0431,145.44 43.5,145.5C 37.5,144.833 31.5,144.167 25.5,143.5 Z"/></g>
<g><path style="opacity:1" fill="#f4b70f" d="M 157.5,143.5 C 171.5,143.5 185.5,143.5 199.5,143.5C 199.5,146.5 199.5,149.5 199.5,152.5C 193.417,152.478 187.417,151.811 181.5,150.5C 177.818,149.739 173.985,149.072 170,148.5C 169.235,148.57 168.735,148.903 168.5,149.5C 166.283,148.631 163.95,148.298 161.5,148.5C 154.911,147.665 148.245,146.498 141.5,145C 147.016,144.827 152.349,144.327 157.5,143.5 Z"/></g>
<g><path style="opacity:0.251" fill="#513607" d="M 157.5,143.5 C 152.349,144.327 147.016,144.827 141.5,145C 148.245,146.498 154.911,147.665 161.5,148.5C 150.124,147.624 138.791,146.291 127.5,144.5C 137.478,143.501 147.478,143.168 157.5,143.5 Z"/></g>
<g><path style="opacity:0.047" fill="#503d18" d="M 43.5,145.5 C 43.1436,147.19 42.1436,148.19 40.5,148.5C 40.8564,146.81 41.8564,145.81 43.5,145.5 Z"/></g>
<g><path style="opacity:0.031" fill="#614111" d="M 111.5,142.5 C 109.123,146.877 105.79,150.21 101.5,152.5C 104.831,149 107.998,145.334 111,141.5C 111.399,141.728 111.565,142.062 111.5,142.5 Z"/></g>
<g><path style="opacity:0.329" fill="#50340a" d="M 51.5,147.5 C 51.1436,149.19 50.1436,150.19 48.5,150.5C 48.8564,148.81 49.8564,147.81 51.5,147.5 Z"/></g>
<g><path style="opacity:0.227" fill="#685321" d="M 168.5,149.5 C 168.735,148.903 169.235,148.57 170,148.5C 173.985,149.072 177.818,149.739 181.5,150.5C 177.102,150.706 172.768,150.373 168.5,149.5 Z"/></g>
<g><path style="opacity:0.071" fill="#735e1b" d="M 16.5,151.5 C 16.7352,150.903 17.2352,150.57 18,150.5C 22.3164,151.08 26.4831,151.747 30.5,152.5C 25.7697,152.717 21.1031,152.383 16.5,151.5 Z"/></g>
<g><path style="opacity:0.012" fill="#584e03" d="M 40.5,148.5 C 40.1667,150.833 38.8333,152.167 36.5,152.5C 37.5,150.833 38.8333,149.5 40.5,148.5 Z"/></g>
<g><path style="opacity:0.024" fill="#594905" d="M 48.5,150.5 C 46.9059,153.764 44.5725,156.431 41.5,158.5C 42.9025,155.035 45.2358,152.368 48.5,150.5 Z"/></g>
<g><path style="opacity:0.039" fill="#5c3f0b" d="M 99.5,155.5 C 99.1412,157.371 98.1412,158.871 96.5,160C 97.5707,160.852 98.5707,161.685 99.5,162.5C 98.1667,162.5 96.8333,162.5 95.5,162.5C 95.149,159.188 96.4823,156.855 99.5,155.5 Z"/></g>
<g><path style="opacity:0.192" fill="#5c450c" d="M 39.5,160.5 C 37.5459,164.032 34.8792,167.032 31.5,169.5C 33.4133,165.915 36.0799,162.915 39.5,160.5 Z"/></g>
<g><path style="opacity:0.278" fill="#634415" d="M -0.5,164.5 C 6.8409,164.334 14.1742,164.5 21.5,165C 24.2688,165.835 24.9355,167.335 23.5,169.5C 22.596,168.791 22.2627,167.791 22.5,166.5C 14.8333,166.5 7.16667,166.5 -0.5,166.5C -0.5,165.833 -0.5,165.167 -0.5,164.5 Z"/></g>
<g><path style="opacity:0.31" fill="#574612" d="M 150.5,162.5 C 166.594,164.462 182.927,165.129 199.5,164.5C 199.5,165.167 199.5,165.833 199.5,166.5C 183.83,166.667 168.163,166.5 152.5,166C 151.027,165.29 150.36,164.124 150.5,162.5 Z"/></g>
<g><path style="opacity:1" fill="#f3b70f" d="M -0.5,166.5 C 7.16667,166.5 14.8333,166.5 22.5,166.5C 22.2627,167.791 22.596,168.791 23.5,169.5C 22.9518,171.626 22.2852,173.626 21.5,175.5C 16.6099,175.277 11.9433,175.277 7.5,175.5C 4.94551,174.612 2.27884,174.279 -0.5,174.5C -0.5,171.833 -0.5,169.167 -0.5,166.5 Z"/></g>
<g><path style="opacity:0.439" fill="#534011" d="M 196.5,174.5 C 182.654,173.587 168.821,172.254 155,170.5C 153.833,170.833 152.667,171.167 151.5,171.5C 151.006,173.026 150.339,174.359 149.5,175.5C 149.261,173.533 149.594,171.699 150.5,170C 166.094,170.126 181.428,171.626 196.5,174.5 Z"/></g>
<g><path style="opacity:0.051" fill="#735f24" d="M 7.5,175.5 C 11.9433,175.277 16.6099,175.277 21.5,175.5C 16.9648,176.744 12.2981,176.744 7.5,175.5 Z"/></g>
<g><path style="opacity:0.094" fill="#5d4308" d="M 28.5,176.5 C 29.4938,179.897 29.1604,183.23 27.5,186.5C 27.4595,183.119 27.7929,179.786 28.5,176.5 Z"/></g>
<g><path style="opacity:1" fill="#eaaf0f" d="M -0.5,188.5 C 5.16667,188.5 10.8333,188.5 16.5,188.5C 17.968,189.779 18.6347,191.446 18.5,193.5C 18.5,193.833 18.5,194.167 18.5,194.5C 17.9373,196.32 16.7706,197.653 15,198.5C 9.88412,197.575 4.71745,197.242 -0.5,197.5C -0.5,194.5 -0.5,191.5 -0.5,188.5 Z"/></g>
<g><path style="opacity:0.169" fill="#4a3308" d="M 149.5,175.5 C 149.143,179.593 149.143,183.593 149.5,187.5C 157.138,188.497 164.804,188.831 172.5,188.5C 166.013,189.328 159.346,189.828 152.5,190C 153.416,190.278 154.082,190.778 154.5,191.5C 152.167,191.5 149.833,191.5 147.5,191.5C 147.599,194.237 147.265,196.904 146.5,199.5C 145.833,199.5 145.167,199.5 144.5,199.5C 145.578,196.598 146.244,193.598 146.5,190.5C 147.552,190.649 148.552,190.483 149.5,190C 148.056,188.874 147.39,187.374 147.5,185.5C 147.901,181.976 148.567,178.642 149.5,175.5 Z"/></g>
<g><path style="opacity:1" fill="#e0a810" d="M 172.5,188.5 C 181.5,188.5 190.5,188.5 199.5,188.5C 199.5,191.5 199.5,194.5 199.5,197.5C 197.886,195.925 195.886,195.259 193.5,195.5C 188.668,194.6 183.668,193.934 178.5,193.5C 176.833,193.5 175.167,193.5 173.5,193.5C 169.678,192.623 165.678,191.956 161.5,191.5C 160.274,191.52 159.274,191.853 158.5,192.5C 157.292,191.766 155.959,191.433 154.5,191.5C 154.082,190.778 153.416,190.278 152.5,190C 159.346,189.828 166.013,189.328 172.5,188.5 Z"/></g>
<g><path style="opacity:0.224" fill="#483201" d="M 16.5,188.5 C 17.5,188.5 18.5,188.5 19.5,188.5C 19.7845,190.415 19.4511,192.081 18.5,193.5C 18.6347,191.446 17.968,189.779 16.5,188.5 Z"/></g>
<g><path style="opacity:0.075" fill="#684c13" d="M 158.5,192.5 C 159.274,191.853 160.274,191.52 161.5,191.5C 165.678,191.956 169.678,192.623 173.5,193.5C 168.473,193.497 163.473,193.164 158.5,192.5 Z"/></g>
<g><path style="opacity:0.118" fill="#604a11" d="M 27.5,188.5 C 27.3239,191.727 26.6572,194.727 25.5,197.5C 25.2153,194.171 25.8819,191.171 27.5,188.5 Z"/></g>
<g><path style="opacity:0.173" fill="#6e561a" d="M 178.5,193.5 C 183.668,193.934 188.668,194.6 193.5,195.5C 189.486,195.666 185.486,195.499 181.5,195C 180.263,194.768 179.263,194.268 178.5,193.5 Z"/></g>
<g><path style="opacity:0.259" fill="#4f3006" d="M 18.5,194.5 C 18.5,196.167 18.5,197.833 18.5,199.5C 15.1667,199.5 11.8333,199.5 8.5,199.5C 5.7131,198.523 2.7131,198.19 -0.5,198.5C -0.5,198.167 -0.5,197.833 -0.5,197.5C 4.71745,197.242 9.88412,197.575 15,198.5C 16.7706,197.653 17.9373,196.32 18.5,194.5 Z"/></g>
</svg>
